<svg height="512" viewBox="0 0 128 128" width="512" xmlns="http://www.w3.org/2000/svg"><path d="m17.981 127h80.934a2.957 2.957 0 0 0 2.961-2.953v-110.1a2.957 2.957 0 0 0 -2.961-2.953h-52l-31.895 31.806v81.245a2.957 2.957 0 0 0 2.961 2.955z" fill="#dcdcd2"/><path d="m12.971 122h80.929a2.957 2.957 0 0 0 2.961-2.953v-110.097a2.957 2.957 0 0 0 -2.961-2.95h-52l-31.89 31.8v81.25a2.957 2.957 0 0 0 2.961 2.95z" fill="#f0f0e6"/><path d="m7.961 117.006h80.934a2.957 2.957 0 0 0 2.961-2.953v-110.1a2.957 2.957 0 0 0 -2.961-2.953h-52l-31.895 31.808v81.245a2.957 2.957 0 0 0 2.961 2.953z" fill="#fffffa"/><path d="m16.515 45.376h63.5a2.957 2.957 0 0 0 2.961-2.953v-26a2.957 2.957 0 0 0 -2.961-2.953h-55.626l-10.835 10.806v18.146a2.957 2.957 0 0 0 2.961 2.954z" fill="#ffe885"/><path d="m80.341 101.786h-63.5a2.957 2.957 0 0 1 -2.961-2.953v-6.279a2.957 2.957 0 0 1 2.964-2.954h63.5a2.957 2.957 0 0 1 2.956 2.954v6.279a2.957 2.957 0 0 1 -2.959 2.953z" fill="#e678a0"/><path d="m5 32.808v6.001h8.554v-14.533z" fill="#dcdcd2"/><path d="m42.907 13.469v-12.469h-6.016l-18.935 18.886 6.433-6.417z" fill="#dcdcd2"/><path d="m42.907 29.855v-16.386h-18.518l-6.433 6.416-4.4 4.39v14.534h20.374a8.975 8.975 0 0 0 8.977-8.954z" fill="#f0dc78"/><path d="m5 32.808h28.93a2.957 2.957 0 0 0 2.961-2.953v-28.855z" fill="#f0f0e6"/><path d="m36.891 5.883v-4.883l-31.891 31.808h4.896z" fill="#fffffa"/><path d="m92.423 37.8h-10.262a5.436 5.436 0 0 1 -5.443-5.429v-8.92a5.436 5.436 0 0 1 5.443-5.429h10.262z" fill="#aad2ff"/><path d="m82.161 18.027a5.436 5.436 0 0 0 -5.443 5.429v2.512a5.436 5.436 0 0 1 5.443-5.429h10.262v-2.512z" fill="#bee6ff"/><path d="m117.544 47.888-17.721-10.083v-19.778l17.721-10.083z" fill="#aad2ff"/><path d="m99.823 18.027v2.512l17.721-10.083v-2.512z" fill="#bee6ff"/><path d="m117.544 45.376v2.512l-17.721-10.083v-2.512z" fill="#96bef0"/><path d="m99.726 56.42a15.034 15.034 0 0 1 -14-9.531l-3.565-9.089h10.262z" fill="#b4aaf0"/><path d="m83.882 42.191h10.262l-1.721-4.386h-10.262z" fill="#a99be0"/><path d="m92.423 18.027h7.4v19.778h-7.4z" fill="#e678a0"/><path d="m92.423 18.027h7.4v2.512h-7.4z" fill="#fa8cb4"/><path d="m82.161 37.8a5.436 5.436 0 0 1 -5.443-5.429v-2.507a5.436 5.436 0 0 0 5.443 5.429h10.262v2.507z" fill="#96bef0"/><path d="m92.423 35.293h7.4v2.512h-7.4z" fill="#d2648c"/><path d="m117.544 18.994v17.844c3.17-1.257 5.456-4.772 5.456-8.922s-2.286-7.665-5.456-8.922z" fill="#b4aaf0"/><path d="m117.544 32.085v4.753c3.17-1.257 5.456-4.772 5.456-8.922a10.882 10.882 0 0 0 -.283-2.376 8.98 8.98 0 0 1 -5.173 6.545z" fill="#a99be0"/><path d="m78.95 56.42h-12.928a2.59 2.59 0 0 1 -2.593-2.587 2.59 2.59 0 0 1 2.593-2.587h12.928a2.59 2.59 0 0 1 2.593 2.587 2.59 2.59 0 0 1 -2.593 2.587z" fill="#fffffa"/><path d="m54.892 56.42h-12.928a2.59 2.59 0 0 1 -2.593-2.587 2.59 2.59 0 0 1 2.593-2.587h12.928a2.59 2.59 0 0 1 2.593 2.587 2.59 2.59 0 0 1 -2.593 2.587z" fill="#e678a0"/><g fill="#785ae6"><path d="m99.823 19.027h-2.957a1 1 0 0 1 -1-1v-7.033a1 1 0 0 1 1-1h2.049a3.962 3.962 0 0 1 3.961 3.953v2.912a1 1 0 0 1 -.506.869l-2.053 1.172a1 1 0 0 1 -.494.127zm-1.957-2h1.692l1.317-.75v-2.33a1.959 1.959 0 0 0 -1.961-1.953h-1.048z"/><path d="m98.915 128h-80.935a3.962 3.962 0 0 1 -3.961-3.953v-2.047a1 1 0 0 1 1-1h78.886a1.96 1.96 0 0 0 1.961-1.954v-62.91a1 1 0 0 1 1.189-.982q.59.114 1.17.179l-2.289-5.833a1 1 0 0 1 -.069-.365v-11.33a1 1 0 0 1 1-1h2.957a1 1 0 0 1 .494.131l2.052 1.164a1 1 0 0 1 .506.869v85.074a3.962 3.962 0 0 1 -3.961 3.957zm-82.9-5v1.043a1.959 1.959 0 0 0 1.965 1.957h80.935a1.959 1.959 0 0 0 1.961-1.953v-84.492l-1.317-.75h-1.693v10.136l2.79 7.113a1 1 0 0 1 -.931 1.365 15.51 15.51 0 0 1 -1.859-.115v61.746a3.962 3.962 0 0 1 -3.961 3.95z"/><path d="m96.866 19.027h-5.01a1 1 0 0 1 -1-1v-12.027a1 1 0 0 1 1-1h2.049a3.962 3.962 0 0 1 3.961 3.95v9.077a1 1 0 0 1 -1 1zm-4.01-2h3.01v-8.077a1.96 1.96 0 0 0 -1.961-1.95h-1.049z"/><path d="m93.905 123h-80.934a3.962 3.962 0 0 1 -3.961-3.95v-2.043a1 1 0 0 1 1-1h78.885a1.959 1.959 0 0 0 1.962-1.953v-59.864a1 1 0 0 1 1.523-.853 13.969 13.969 0 0 0 4.676 1.816 1 1 0 0 1 .811.982v62.915a3.962 3.962 0 0 1 -3.962 3.95zm-82.9-5v1.043a1.96 1.96 0 0 0 1.966 1.957h80.934a1.96 1.96 0 0 0 1.961-1.954v-62.107a15.961 15.961 0 0 1 -3.01-1.071v58.185a3.962 3.962 0 0 1 -3.962 3.953z"/><path d="m96.865 50.13a1 1 0 0 1 -.93-.635l-4.443-11.325a1 1 0 0 1 .931-1.365h4.443a1 1 0 0 1 1 1v11.325a1 1 0 0 1 -1 1zm-2.975-11.325 1.977 5.038v-5.038z"/><path d="m80.012 46.375h-3.294a1 1 0 0 1 0-2h3.294a1.959 1.959 0 0 0 1.961-1.953v-2.36l-.508-1.294a6.444 6.444 0 0 1 -5.747-6.393v-8.919a6.443 6.443 0 0 1 6.255-6.426v-.607a1.96 1.96 0 0 0 -1.961-1.954h-43.121a1 1 0 0 1 0-2h43.121a3.962 3.962 0 0 1 3.961 3.954v1.6a1 1 0 0 1 -1 1h-.812a4.441 4.441 0 0 0 -4.443 4.429v8.919a4.442 4.442 0 0 0 4.443 4.43 1 1 0 0 1 .931.635l.812 2.068a1 1 0 0 1 .069.365v2.549a3.962 3.962 0 0 1 -3.961 3.957z"/><path d="m63.429 46.375h-46.914a3.962 3.962 0 0 1 -3.961-3.953v-9.614a1 1 0 0 1 2 0v9.614a1.959 1.959 0 0 0 1.961 1.953h46.914a1 1 0 0 1 0 2z"/><path d="m33.93 33.808h-28.93a1 1 0 0 1 -.706-1.708l31.891-31.808a1 1 0 0 1 1.706.708v16.282a1 1 0 0 1 -2 0v-13.872l-28.473 28.398h26.512a1.96 1.96 0 0 0 1.961-1.954v-4.571a1 1 0 1 1 2 0v4.572a3.962 3.962 0 0 1 -3.961 3.953z"/><path d="m88.895 118.006h-80.934a3.962 3.962 0 0 1 -3.961-3.953v-81.245a1 1 0 0 1 .294-.708l31.891-31.808a1 1 0 0 1 .706-.292h52a3.962 3.962 0 0 1 3.962 3.953v14.074a1 1 0 0 1 -1 1h-9.7a4.441 4.441 0 0 0 -4.443 4.429v8.919a4.442 4.442 0 0 0 4.443 4.43 1 1 0 0 1 .931.635l3.564 9.083a13.892 13.892 0 0 0 5.723 6.814 1 1 0 0 1 .478.853v59.863a3.962 3.962 0 0 1 -3.954 3.953zm-82.895-84.783v80.83a1.959 1.959 0 0 0 1.961 1.953h80.934a1.959 1.959 0 0 0 1.962-1.953v-59.314a15.85 15.85 0 0 1 -6.062-7.485l-3.33-8.486a6.444 6.444 0 0 1 -5.747-6.393v-8.919a6.444 6.444 0 0 1 6.443-6.429h8.7v-13.074a1.959 1.959 0 0 0 -1.966-1.953h-51.595z"/><path d="m92.423 38.805h-10.262a6.444 6.444 0 0 1 -6.443-6.43v-8.919a6.444 6.444 0 0 1 6.443-6.429h10.262a1 1 0 0 1 1 1v19.778a1 1 0 0 1 -1 1zm-10.262-19.778a4.441 4.441 0 0 0 -4.443 4.429v8.919a4.442 4.442 0 0 0 4.443 4.43h9.262v-17.778z"/><path d="m117.544 48.888a1 1 0 0 1 -.494-.131l-17.721-10.083a1 1 0 0 1 -.506-.869v-19.778a1 1 0 0 1 .506-.869l17.721-10.083a1 1 0 0 1 1.494.869v39.944a1 1 0 0 1 -1 1zm-16.721-11.664 15.721 8.944v-36.504l-15.721 8.945z"/><path d="m99.726 57.42a15.937 15.937 0 0 1 -14.931-10.166l-3.565-9.084a1 1 0 0 1 .931-1.365h10.262a1 1 0 0 1 .931.635l7.3 18.615a1 1 0 0 1 -.931 1.365zm-16.1-18.615 3.028 7.718a13.935 13.935 0 0 0 11.572 8.819l-6.485-16.537z"/><path d="m99.823 38.805h-7.4a1 1 0 0 1 -1-1v-19.778a1 1 0 0 1 1-1h7.4a1 1 0 0 1 1 1v19.778a1 1 0 0 1 -1 1zm-6.4-2h5.4v-17.778h-5.4z"/><path d="m117.544 37.838a1 1 0 0 1 -1-1v-17.844a1 1 0 0 1 1.368-.93c3.642 1.444 6.088 5.4 6.088 9.852s-2.446 8.408-6.088 9.852a1 1 0 0 1 -.368.07zm1-17.171v14.5a8.838 8.838 0 0 0 3.456-7.251 8.838 8.838 0 0 0 -3.456-7.249z"/><path d="m80.341 102.786h-63.5a3.962 3.962 0 0 1 -3.961-3.953v-6.279a3.962 3.962 0 0 1 3.964-3.954 1 1 0 0 1 0 2 1.959 1.959 0 0 0 -1.961 1.953v6.279a1.959 1.959 0 0 0 1.961 1.953h63.5a1.959 1.959 0 0 0 1.956-1.952v-6.279a1.959 1.959 0 0 0 -1.959-1.954h-54.969a1 1 0 1 1 0-2h54.969a3.962 3.962 0 0 1 3.959 3.954v6.279a3.962 3.962 0 0 1 -3.959 3.953z"/><path d="m78.95 57.42h-12.928a3.587 3.587 0 1 1 0-7.174h12.928a3.587 3.587 0 1 1 0 7.174zm-12.928-5.174a1.587 1.587 0 1 0 0 3.174h12.928a1.587 1.587 0 1 0 0-3.174z"/><path d="m54.892 57.42h-12.928a3.587 3.587 0 1 1 0-7.174h12.928a3.587 3.587 0 1 1 0 7.174zm-12.928-5.174a1.587 1.587 0 1 0 0 3.174h12.928a1.587 1.587 0 1 0 0-3.174z"/><path d="m81.18 64.911h-66.357a1 1 0 0 1 0-2h66.357a1 1 0 0 1 0 2z"/><path d="m81.18 71.314h-66.357a1 1 0 0 1 0-2h66.357a1 1 0 0 1 0 2z"/><path d="m81.18 77.717h-66.357a1 1 0 0 1 0-2h66.357a1 1 0 0 1 0 2z"/><path d="m53.034 84.12h-38.211a1 1 0 0 1 0-2h38.211a1 1 0 0 1 0 2z"/><path d="m33.427 109.332h-18.115a1 1 0 0 1 0-2h18.115a1 1 0 0 1 0 2z"/><path d="m57.485 109.332h-18.114a1 1 0 0 1 0-2h18.114a1 1 0 0 1 0 2z"/><path d="m81.543 109.332h-18.114a1 1 0 1 1 0-2h18.114a1 1 0 0 1 0 2z"/></g></svg>