<?xml version="1.0" encoding="iso-8859-1"?>
<!-- Generator: Adobe Illustrator 19.0.0, SVG Export Plug-In . SVG Version: 6.00 Build 0)  -->
<svg version="1.1" id="Capa_1" xmlns="http://www.w3.org/2000/svg" xmlns:xlink="http://www.w3.org/1999/xlink" x="0px" y="0px"
	 viewBox="0 0 496 496" style="enable-background:new 0 0 496 496;" xml:space="preserve">
<g>
	<g>
		<g>
			<path d="M447.812,390.192c-5.368-32.232-27.968-58.68-58.976-69.016l-68.832-22.944V288h-16v15.008l-11.944,47.768L259.748,312
				h-23.496l-32.312,38.776l-11.936-47.768V288h-16v10.232l-68.832,22.944c-31,10.336-53.6,36.784-58.976,69.016L30.556,496h434.888
				L447.812,390.192z M209.068,480h-88.224l7.12-71.2l-15.92-1.592l-7.28,72.8H49.452l14.528-87.176
				c4.392-26.376,22.888-48.008,48.256-56.472l66.104-22.04l17.728,70.904l18.04-21.648l9.544,14.32L209.068,480z M270.78,480
				h-45.552l15.128-105.896l-15.568-23.352L243.748,328h8.504l18.96,22.752l-15.568,23.352L270.78,480z M391.244,480l-7.28-72.8
				l-15.92,1.592l7.12,71.2H286.94l-14.584-102.104l9.544-14.32l18.04,21.648l17.728-70.904l66.104,22.04
				c25.368,8.456,43.856,30.096,48.256,56.472L446.556,480H391.244z"/>
			<path d="M147.54,215.552c4.08,14.04,11.616,26.912,22.24,37.536l31.2,31.2C208.532,291.84,218.572,296,229.26,296h37.496
				c10.68,0,20.728-4.16,28.28-11.712l31.2-31.2c10.624-10.624,18.16-23.504,22.24-37.536c19.928-2.256,35.528-19.024,35.528-39.552
				c0-13.128-6.448-24.704-16.248-32h0.248V96c0-20.024-14.8-36.664-34.032-39.552C321.932,22.944,289.716,0,253.764,0h-5.76
				c-66.168,0-120,53.832-120,120v24h0.248c-9.8,7.296-16.248,18.872-16.248,32C112.004,196.528,127.604,213.296,147.54,215.552z
				 M336.004,190.856c0,19.24-7.488,37.32-21.088,50.92l-31.2,31.2c-4.464,4.464-10.648,7.024-16.968,7.024h-37.496
				c-6.32,0-12.496-2.56-16.968-7.024l-31.2-31.2c-13.6-13.6-21.088-31.68-21.088-50.912V152h31.432
				c35.208,0,68.496-12.504,94.8-35.408l2.448,4.08c10.208,17.016,27.872,28.328,47.328,30.792V190.856z M368.004,176
				c0,10.552-6.896,19.44-16.376,22.64c0.224-2.568,0.376-5.16,0.376-7.776v-37.392C361.292,156.784,368.004,165.584,368.004,176z
				 M144.004,120c0-57.344,46.656-104,104-104h5.76c30.736,0,58.104,20.64,66.552,50.2l1.656,5.8h6.032c13.232,0,24,10.768,24,24
				v40.808c-2.584-0.528-5.264-0.808-8-0.808c-16.944,0-32.888-9.024-41.608-23.56l-12.808-21.344l-7.248,7.248
				C258.06,122.624,225.78,136,191.436,136h-39.432c-2.736,0-5.416,0.28-8,0.808V120z M144.004,153.472v37.392
				c0,2.616,0.152,5.208,0.376,7.784c-9.48-3.208-16.376-12.096-16.376-22.648C128.004,165.584,134.716,156.784,144.004,153.472z"/>
		</g>
	</g>
</g>
<g>
</g>
<g>
</g>
<g>
</g>
<g>
</g>
<g>
</g>
<g>
</g>
<g>
</g>
<g>
</g>
<g>
</g>
<g>
</g>
<g>
</g>
<g>
</g>
<g>
</g>
<g>
</g>
<g>
</g>
</svg>
