<svg enable-background="new 0 0 256 256" height="512" viewBox="0 0 256 256" width="512" xmlns="http://www.w3.org/2000/svg"><g id="Layer_29"><g><g><g><path d="m54.998 43h146.004v210.5h-146.004z" fill="#dae6f1"/></g></g><g><g><path d="m202.619 27h-149.238c-1.867 0-3.381 1.514-3.381 3.381v9.238c0 1.867 1.514 3.381 3.381 3.381h149.238c1.867 0 3.381-1.514 3.381-3.381v-9.238c0-1.867-1.514-3.381-3.381-3.381z" fill="#6cadef"/></g></g><g><g><path d="m89.097 62.278h-11.617c-1.328 0-2.404 1.076-2.404 2.404v11.617c0 1.327 1.076 2.404 2.404 2.404h11.617c1.328 0 2.404-1.076 2.404-2.404v-11.617c0-1.327-1.076-2.404-2.404-2.404z" fill="#5290db"/></g></g><g><g><path d="m118.905 62.278h-11.617c-1.328 0-2.404 1.076-2.404 2.404v11.617c0 1.327 1.076 2.404 2.404 2.404h11.617c1.328 0 2.404-1.076 2.404-2.404v-11.617c0-1.327-1.077-2.404-2.404-2.404z" fill="#5290db"/></g></g><g><g><path d="m148.712 62.278h-11.617c-1.328 0-2.404 1.076-2.404 2.404v11.617c0 1.327 1.076 2.404 2.404 2.404h11.617c1.328 0 2.404-1.076 2.404-2.404v-11.617c0-1.327-1.076-2.404-2.404-2.404z" fill="#5290db"/></g></g><g><g><path d="m178.52 62.278h-11.617c-1.328 0-2.404 1.076-2.404 2.404v11.617c0 1.327 1.076 2.404 2.404 2.404h11.617c1.328 0 2.404-1.076 2.404-2.404v-11.617c-.001-1.327-1.077-2.404-2.404-2.404z" fill="#5290db"/></g></g><g><g><path d="m89.097 92.987h-11.617c-1.328 0-2.404 1.076-2.404 2.404v11.617c0 1.328 1.076 2.404 2.404 2.404h11.617c1.328 0 2.404-1.076 2.404-2.404v-11.617c0-1.328-1.076-2.404-2.404-2.404z" fill="#5290db"/></g></g><g><g><path d="m118.905 92.987h-11.617c-1.328 0-2.404 1.076-2.404 2.404v11.617c0 1.328 1.076 2.404 2.404 2.404h11.617c1.328 0 2.404-1.076 2.404-2.404v-11.617c0-1.328-1.077-2.404-2.404-2.404z" fill="#5290db"/></g></g><g><g><path d="m148.712 92.987h-11.617c-1.328 0-2.404 1.076-2.404 2.404v11.617c0 1.328 1.076 2.404 2.404 2.404h11.617c1.328 0 2.404-1.076 2.404-2.404v-11.617c0-1.328-1.076-2.404-2.404-2.404z" fill="#5290db"/></g></g><g><g><path d="m178.52 92.987h-11.617c-1.328 0-2.404 1.076-2.404 2.404v11.617c0 1.328 1.076 2.404 2.404 2.404h11.617c1.328 0 2.404-1.076 2.404-2.404v-11.617c-.001-1.328-1.077-2.404-2.404-2.404z" fill="#5290db"/></g></g><g><g><path d="m89.097 123.695h-11.617c-1.328 0-2.404 1.076-2.404 2.404v11.617c0 1.328 1.076 2.404 2.404 2.404h11.617c1.328 0 2.404-1.076 2.404-2.404v-11.617c0-1.328-1.076-2.404-2.404-2.404z" fill="#5290db"/></g></g><g><g><path d="m118.905 123.695h-11.617c-1.328 0-2.404 1.076-2.404 2.404v11.617c0 1.328 1.076 2.404 2.404 2.404h11.617c1.328 0 2.404-1.076 2.404-2.404v-11.617c0-1.328-1.077-2.404-2.404-2.404z" fill="#5290db"/></g></g><g><g><path d="m148.712 123.695h-11.617c-1.328 0-2.404 1.076-2.404 2.404v11.617c0 1.328 1.076 2.404 2.404 2.404h11.617c1.328 0 2.404-1.076 2.404-2.404v-11.617c0-1.328-1.076-2.404-2.404-2.404z" fill="#5290db"/></g></g><g><g><path d="m178.52 123.695h-11.617c-1.328 0-2.404 1.076-2.404 2.404v11.617c0 1.328 1.076 2.404 2.404 2.404h11.617c1.328 0 2.404-1.076 2.404-2.404v-11.617c-.001-1.328-1.077-2.404-2.404-2.404z" fill="#5290db"/></g></g><g><g><path d="m89.097 154.404h-11.617c-1.328 0-2.404 1.076-2.404 2.404v11.617c0 1.327 1.076 2.404 2.404 2.404h11.617c1.328 0 2.404-1.076 2.404-2.404v-11.617c0-1.328-1.076-2.404-2.404-2.404z" fill="#5290db"/></g></g><g><g><path d="m118.905 154.404h-11.617c-1.328 0-2.404 1.076-2.404 2.404v11.617c0 1.327 1.076 2.404 2.404 2.404h11.617c1.328 0 2.404-1.076 2.404-2.404v-11.617c0-1.328-1.077-2.404-2.404-2.404z" fill="#5290db"/></g></g><g><g><path d="m148.712 154.404h-11.617c-1.328 0-2.404 1.076-2.404 2.404v11.617c0 1.327 1.076 2.404 2.404 2.404h11.617c1.328 0 2.404-1.076 2.404-2.404v-11.617c0-1.328-1.076-2.404-2.404-2.404z" fill="#5290db"/></g></g><g><g><path d="m178.52 154.404h-11.617c-1.328 0-2.404 1.076-2.404 2.404v11.617c0 1.327 1.076 2.404 2.404 2.404h11.617c1.328 0 2.404-1.076 2.404-2.404v-11.617c-.001-1.328-1.077-2.404-2.404-2.404z" fill="#5290db"/></g></g><g><g><path d="m89.097 185.112h-11.617c-1.328 0-2.404 1.076-2.404 2.404v11.617c0 1.328 1.076 2.404 2.404 2.404h11.617c1.328 0 2.404-1.076 2.404-2.404v-11.617c0-1.328-1.076-2.404-2.404-2.404z" fill="#5290db"/></g></g><g><g><path d="m118.905 185.112h-11.617c-1.328 0-2.404 1.076-2.404 2.404v11.617c0 1.328 1.076 2.404 2.404 2.404h11.617c1.328 0 2.404-1.076 2.404-2.404v-11.617c0-1.328-1.077-2.404-2.404-2.404z" fill="#5290db"/></g></g><g><g><path d="m148.712 185.112h-11.617c-1.328 0-2.404 1.076-2.404 2.404v11.617c0 1.328 1.076 2.404 2.404 2.404h11.617c1.328 0 2.404-1.076 2.404-2.404v-11.617c0-1.328-1.076-2.404-2.404-2.404z" fill="#5290db"/></g></g><g><g><path d="m178.52 185.112h-11.617c-1.328 0-2.404 1.076-2.404 2.404v11.617c0 1.328 1.076 2.404 2.404 2.404h11.617c1.328 0 2.404-1.076 2.404-2.404v-11.617c-.001-1.328-1.077-2.404-2.404-2.404z" fill="#5290db"/></g></g><g><g><path d="m89.097 218.5h-11.617c-1.328 0-2.404 1.076-2.404 2.404v11.617c0 1.328 1.076 2.404 2.404 2.404h11.617c1.328 0 2.404-1.076 2.404-2.404v-11.617c0-1.328-1.076-2.404-2.404-2.404z" fill="#5290db"/></g></g><g><g><path d="m178.52 218.5h-11.617c-1.328 0-2.404 1.076-2.404 2.404v11.617c0 1.328 1.076 2.404 2.404 2.404h11.617c1.328 0 2.404-1.076 2.404-2.404v-11.617c-.001-1.328-1.077-2.404-2.404-2.404z" fill="#5290db"/></g></g><g><g><path d="m149.444 219.5h-42.889c-1.219 0-2.208.989-2.208 2.208v31.792h47.305v-31.792c0-1.219-.988-2.208-2.208-2.208z" fill="#70d6f9"/></g></g><g><g><path d="m54.998 41.094c-1.381 0-2.5 1.119-2.5 2.5v209.156c0 1.381 1.119 2.5 2.5 2.5s2.5-1.119 2.5-2.5v-209.156c0-1.381-1.119-2.5-2.5-2.5z"/></g></g><g><g><path d="m201.002 41.333c-1.381 0-2.5 1.119-2.5 2.5v208.948c0 1.381 1.119 2.5 2.5 2.5s2.5-1.119 2.5-2.5v-208.948c0-1.381-1.119-2.5-2.5-2.5z"/></g></g><g><g><g><path d="m202.619 24.5h-149.238c-3.243 0-5.881 2.638-5.881 5.881v9.238c0 3.243 2.638 5.881 5.881 5.881h149.238c3.243 0 5.881-2.638 5.881-5.881v-9.238c0-3.243-2.638-5.881-5.881-5.881zm.881 15.119c0 .486-.396.881-.881.881h-149.238c-.485 0-.881-.395-.881-.881v-9.238c0-.486.396-.881.881-.881h149.238c.485 0 .881.395.881.881z"/></g></g></g><g><g><path d="m128 218c-1.381 0-2.5 1.119-2.5 2.5v31c0 1.381 1.119 2.5 2.5 2.5s2.5-1.119 2.5-2.5v-31c0-1.381-1.119-2.5-2.5-2.5z"/></g></g><g><g><path d="m209.5 251h-163c-1.381 0-2.5 1.119-2.5 2.5s1.119 2.5 2.5 2.5h163c1.381 0 2.5-1.119 2.5-2.5s-1.119-2.5-2.5-2.5z"/></g></g><g><g><path d="m39.9 118.2c-3.1-.6-5.6-3-6.2-6.1 0-.1-.3-.1-.3 0-.6 3.1-3.1 5.5-6.2 6.1-.1 0-.1.2 0 .3 3.1.6 5.6 3 6.2 6.1 0 .1.3.1.3 0 .6-3.1 3.1-5.5 6.2-6.1.1-.1.1-.3 0-.3z" fill="#fc657e"/></g></g><g><g><path d="m226 159.5h-2.4v-2.3c0-1.8-1.4-3.2-3.2-3.2-1.7 0-3.2 1.4-3.2 3.1v2.4h-2.3c-1.8 0-3.2 1.4-3.2 3.2-.1 1.7 1.3 3.2 3.2 3.2h2.3v2.3c0 1.8 1.4 3.2 3.2 3.2 1.7 0 3.2-1.4 3.2-3.1v-2.4h2.3c1.8 0 3.2-1.4 3.2-3.2 0-1.7-1.4-3.2-3.1-3.2z" fill="#70d6f9"/></g></g><g><g><path d="m116.3 9.5c-1.878 0-3.4 1.522-3.4 3.4s1.522 3.4 3.4 3.4 3.4-1.522 3.4-3.4-1.522-3.4-3.4-3.4z" fill="#87d147"/></g></g><g><g><path d="m215.3 125c-1.878 0-3.4 1.522-3.4 3.4s1.522 3.4 3.4 3.4 3.4-1.522 3.4-3.4-1.522-3.4-3.4-3.4z" fill="#f5c84c"/></g></g><g><g><path d="m91.9 8.85c-4.5-.8-8-4.3-8.9-8.7 0-.2-.4-.2-.4 0-.9 4.4-4.4 7.9-8.9 8.7-.2 0-.2.3 0 .4 4.5.8 8 4.3 8.9 8.7 0 .2.4.2.4 0 .9-4.4 4.4-7.9 8.9-8.7.2-.1.2-.4 0-.4z" fill="#f5c84c"/></g></g><g><g><g><path d="m89.098 59.778h-11.618c-2.704 0-4.903 2.2-4.903 4.904v11.617c0 2.704 2.199 4.904 4.903 4.904h11.617c2.704 0 4.903-2.2 4.903-4.904v-11.617c.001-2.704-2.198-4.904-4.902-4.904zm-.097 16.425h-11.424v-11.425h11.424z"/></g></g></g><g><g><g><path d="m118.905 59.778h-11.617c-2.704 0-4.904 2.2-4.904 4.904v11.617c0 2.704 2.2 4.904 4.904 4.904h11.617c2.704 0 4.903-2.2 4.903-4.904v-11.617c.001-2.704-2.199-4.904-4.903-4.904zm-.096 16.425h-11.425v-11.425h11.425z"/></g></g></g><g><g><g><path d="m148.712 59.778h-11.617c-2.704 0-4.903 2.2-4.903 4.904v11.617c0 2.704 2.199 4.904 4.903 4.904h11.617c2.704 0 4.904-2.2 4.904-4.904v-11.617c0-2.704-2.2-4.904-4.904-4.904zm-.096 16.425h-11.425v-11.425h11.425z"/></g></g></g><g><g><g><path d="m178.52 59.778h-11.617c-2.704 0-4.903 2.2-4.903 4.904v11.617c0 2.704 2.199 4.904 4.903 4.904h11.617c2.704 0 4.903-2.2 4.903-4.904v-11.617c0-2.704-2.199-4.904-4.903-4.904zm-.097 16.425h-11.424v-11.425h11.424z"/></g></g></g><g><g><g><path d="m89.098 90.487h-11.618c-2.704 0-4.903 2.2-4.903 4.904v11.617c0 2.704 2.199 4.903 4.903 4.903h11.617c2.704 0 4.903-2.2 4.903-4.903v-11.617c.001-2.704-2.198-4.904-4.902-4.904zm-.097 16.424h-11.424v-11.424h11.424z"/></g></g></g><g><g><g><path d="m118.905 90.487h-11.617c-2.704 0-4.904 2.2-4.904 4.904v11.617c0 2.704 2.2 4.903 4.904 4.903h11.617c2.704 0 4.903-2.2 4.903-4.903v-11.617c.001-2.704-2.199-4.904-4.903-4.904zm-.096 16.424h-11.425v-11.424h11.425z"/></g></g></g><g><g><g><path d="m148.712 90.487h-11.617c-2.704 0-4.903 2.2-4.903 4.904v11.617c0 2.704 2.199 4.903 4.903 4.903h11.617c2.704 0 4.904-2.2 4.904-4.903v-11.617c0-2.704-2.2-4.904-4.904-4.904zm-.096 16.424h-11.425v-11.424h11.425z"/></g></g></g><g><g><g><path d="m178.52 90.487h-11.617c-2.704 0-4.903 2.2-4.903 4.904v11.617c0 2.704 2.199 4.903 4.903 4.903h11.617c2.704 0 4.903-2.2 4.903-4.903v-11.617c0-2.704-2.199-4.904-4.903-4.904zm-.097 16.424h-11.424v-11.424h11.424z"/></g></g></g><g><g><g><path d="m89.098 121.195h-11.618c-2.704 0-4.903 2.2-4.903 4.903v11.617c0 2.704 2.199 4.904 4.903 4.904h11.617c2.704 0 4.903-2.2 4.903-4.904v-11.617c.001-2.703-2.198-4.903-4.902-4.903zm-.097 16.425h-11.424v-11.424h11.424z"/></g></g></g><g><g><g><path d="m118.905 121.195h-11.617c-2.704 0-4.904 2.2-4.904 4.903v11.617c0 2.704 2.2 4.904 4.904 4.904h11.617c2.704 0 4.903-2.2 4.903-4.904v-11.617c.001-2.703-2.199-4.903-4.903-4.903zm-.096 16.425h-11.425v-11.424h11.425z"/></g></g></g><g><g><g><path d="m148.712 121.195h-11.617c-2.704 0-4.903 2.2-4.903 4.903v11.617c0 2.704 2.199 4.904 4.903 4.904h11.617c2.704 0 4.904-2.2 4.904-4.904v-11.617c0-2.703-2.2-4.903-4.904-4.903zm-.096 16.425h-11.425v-11.424h11.425z"/></g></g></g><g><g><g><path d="m178.52 121.195h-11.617c-2.704 0-4.903 2.2-4.903 4.903v11.617c0 2.704 2.199 4.904 4.903 4.904h11.617c2.704 0 4.903-2.2 4.903-4.904v-11.617c0-2.703-2.199-4.903-4.903-4.903zm-.097 16.425h-11.424v-11.424h11.424z"/></g></g></g><g><g><g><path d="m89.098 151.903h-11.618c-2.704 0-4.903 2.2-4.903 4.904v11.617c0 2.704 2.199 4.904 4.903 4.904h11.617c2.704 0 4.903-2.2 4.903-4.904v-11.617c.001-2.704-2.198-4.904-4.902-4.904zm-.097 16.425h-11.424v-11.425h11.424z"/></g></g></g><g><g><g><path d="m118.905 151.903h-11.617c-2.704 0-4.904 2.2-4.904 4.904v11.617c0 2.704 2.2 4.904 4.904 4.904h11.617c2.704 0 4.903-2.2 4.903-4.904v-11.617c.001-2.704-2.199-4.904-4.903-4.904zm-.096 16.425h-11.425v-11.425h11.425z"/></g></g></g><g><g><g><path d="m148.712 151.903h-11.617c-2.704 0-4.903 2.2-4.903 4.904v11.617c0 2.704 2.199 4.904 4.903 4.904h11.617c2.704 0 4.904-2.2 4.904-4.904v-11.617c0-2.704-2.2-4.904-4.904-4.904zm-.096 16.425h-11.425v-11.425h11.425z"/></g></g></g><g><g><g><path d="m178.52 151.903h-11.617c-2.704 0-4.903 2.2-4.903 4.904v11.617c0 2.704 2.199 4.904 4.903 4.904h11.617c2.704 0 4.903-2.2 4.903-4.904v-11.617c0-2.704-2.199-4.904-4.903-4.904zm-.097 16.425h-11.424v-11.425h11.424z"/></g></g></g><g><g><g><path d="m89.098 182.612h-11.618c-2.704 0-4.903 2.2-4.903 4.904v11.617c0 2.704 2.199 4.903 4.903 4.903h11.617c2.704 0 4.903-2.2 4.903-4.903v-11.617c.001-2.704-2.198-4.904-4.902-4.904zm-.097 16.424h-11.424v-11.424h11.424z"/></g></g></g><g><g><g><path d="m118.905 182.612h-11.617c-2.704 0-4.904 2.2-4.904 4.904v11.617c0 2.704 2.2 4.903 4.904 4.903h11.617c2.704 0 4.903-2.2 4.903-4.903v-11.617c.001-2.704-2.199-4.904-4.903-4.904zm-.096 16.424h-11.425v-11.424h11.425z"/></g></g></g><g><g><g><path d="m148.712 182.612h-11.617c-2.704 0-4.903 2.2-4.903 4.904v11.617c0 2.704 2.199 4.903 4.903 4.903h11.617c2.704 0 4.904-2.2 4.904-4.903v-11.617c0-2.704-2.2-4.904-4.904-4.904zm-.096 16.424h-11.425v-11.424h11.425z"/></g></g></g><g><g><g><path d="m178.52 182.612h-11.617c-2.704 0-4.903 2.2-4.903 4.904v11.617c0 2.704 2.199 4.903 4.903 4.903h11.617c2.704 0 4.903-2.2 4.903-4.903v-11.617c0-2.704-2.199-4.904-4.903-4.904zm-.097 16.424h-11.424v-11.424h11.424z"/></g></g></g><g><g><g><path d="m89.098 216h-11.618c-2.704 0-4.903 2.2-4.903 4.904v11.617c0 2.704 2.199 4.903 4.903 4.903h11.617c2.704 0 4.903-2.2 4.903-4.903v-11.617c.001-2.704-2.198-4.904-4.902-4.904zm-.097 16.424h-11.424v-11.424h11.424z"/></g></g></g><g><g><g><path d="m178.52 216h-11.617c-2.704 0-4.903 2.2-4.903 4.904v11.617c0 2.704 2.199 4.903 4.903 4.903h11.617c2.704 0 4.903-2.2 4.903-4.903v-11.617c0-2.704-2.199-4.904-4.903-4.904zm-.097 16.424h-11.424v-11.424h11.424z"/></g></g></g><g><g><path d="m149.444 217h-42.889c-2.596 0-4.708 2.112-4.708 4.708v30.792c0 1.381 1.119 2.5 2.5 2.5s2.5-1.119 2.5-2.5v-30.5h42.305v30.5c0 1.381 1.119 2.5 2.5 2.5s2.5-1.119 2.5-2.5v-30.792c0-2.596-2.112-4.708-4.708-4.708z"/></g></g></g></g></svg>