<svg height="511pt" viewBox="-6 0 511 511.9968" width="511pt" xmlns="http://www.w3.org/2000/svg"><path d="m461.296875 30.890625h-383.671875c-6.078125.015625-10.996094 4.9375-11.015625 11.011719v35.800781h342.265625c6.074219.019531 10.996094 4.9375 11.011719 11.011719v324.933594h41.402343c6.074219-.019532 10.996094-4.941407 11.011719-11.015626v-360.730468c-.015625-6.070313-4.929687-10.988282-11.003906-11.011719zm0 0" fill="#e9e9ea"/><path d="m408.875 77.695312h-383.671875c-6.078125.019532-10.996094 4.941407-11.015625 11.015626v360.726562c.019531 6.078125 4.9375 10.996094 11.015625 11.015625h339.933594l-45.753907-45.757813c-6.25-6.25-6.25-16.378906 0-22.628906s16.378907-6.25 22.628907 0l61.71875 61.71875c1.867187 1.859375 3.238281 4.148438 4 6.667969h1.152343c6.074219-.019531 10.996094-4.9375 11.011719-11.015625v-360.726562c-.015625-6.078126-4.941406-11-11.019531-11.015626zm0 0" fill="#e9e9ea"/><path d="m304.109375 376.796875c-49.210937 49.210937-129 49.210937-178.214844 0-49.210937-49.210937-49.210937-129.003906 0-178.214844 49.214844-49.210937 129-49.210937 178.214844 0 49.136719 49.246094 49.136719 128.96875 0 178.214844zm0 0" fill="#6d6c6b"/><path d="m140.980469 213.667969c-40.878907 40.878906-40.878907 107.160156 0 148.039062 40.882812 40.878907 107.160156 40.878907 148.042969 0 40.878906-40.878906 40.878906-107.160156 0-148.039062-40.910157-40.816407-107.132813-40.816407-148.042969 0zm0 0" fill="#acdef9"/><path d="m319.382812 392.070312c6.25-6.25 16.382813-6.25 22.628907 0l61.71875 61.71875c6.25 6.25 6.25 16.382813 0 22.632813s-16.378907 6.25-22.628907 0l-61.71875-61.722656c-6.25-6.25-6.25-16.378907 0-22.628907zm0 0" fill="#f75c64"/><path d="m319.382812 392.070312c2.785157-2.789062 6.503907-4.445312 10.441407-4.648437l-18.492188-18.492187c-2.28125 2.695312-4.6875 5.320312-7.222656 7.863281-2.535156 2.546875-5.160156 4.957031-7.867187 7.222656l18.496093 18.496094c.203125-3.9375 1.855469-7.65625 4.644531-10.441407zm0 0" fill="#acdef9"/><path d="m326.234375 421.542969 22.632813-22.628907 15.398437 15.398438-22.632813 22.628906zm0 0" fill="#ea4647"/><path d="m277.085938 241.433594h-123.402344c-4.492188.011718-8.132813 3.652344-8.148438 8.148437v84.085938c.015625 4.496093 3.65625 8.136719 8.148438 8.148437h122.628906c4.496094-.011718 8.136719-3.652344 8.148438-8.148437v-84.855469c-.011719-4.070312-3.304688-7.367188-7.375-7.378906zm0 0" fill="#b26e3b"/><path d="m277.074219 241.433594h-123.398438c-4.496093.011718-8.136719 3.652344-8.148437 8.148437v21.519531c.027344 9.105469 7.402344 16.480469 16.507812 16.507813h105.917969c9.105469-.023437 16.484375-7.402344 16.507813-16.507813v-22.289062c-.011719-4.074219-3.3125-7.375-7.386719-7.378906zm0 0" fill="#c1814c"/><path d="m203.558594 287.609375h22.886718c5.40625 0 9.785157 4.382813 9.785157 9.785156 0 5.402344-4.378907 9.785157-9.785157 9.785157h-22.886718c-5.402344 0-9.785156-4.382813-9.785156-9.785157 0-5.402343 4.382812-9.785156 9.785156-9.785156zm0 0" fill="#e9e9ea"/><path d="m205.21875 307.179688v4.402343c-.003906 5.402344 4.371094 9.785157 9.777344 9.789063 5.402344.003906 9.785156-4.371094 9.789062-9.773438 0-.007812 0-.011718 0-.019531v-4.398437zm0 0" fill="#e9e9ea"/><path d="m408.875 77.695312h-383.671875c-6.078125.019532-10.996094 4.941407-11.015625 11.015626v36.769531h405.703125v-36.769531c-.015625-6.078126-4.9375-11-11.015625-11.015626zm0 0" fill="#6d6c6b"/><path d="m472.3125 41.902344c-.015625-6.074219-4.9375-10.996094-11.011719-11.011719h-383.675781c-6.078125.015625-10.996094 4.9375-11.015625 11.011719v35.800781h405.703125zm0 0" fill="#6d6c6b"/><path d="m55.796875 101.128906c0 5.070313-4.109375 9.179688-9.175781 9.179688-5.070313 0-9.179688-4.109375-9.179688-9.179688 0-5.070312 4.109375-9.179687 9.179688-9.179687 5.066406 0 9.175781 4.109375 9.175781 9.179687zm0 0" fill="#f75c64"/><path d="m88.800781 101.128906c0 5.070313-4.109375 9.179688-9.175781 9.179688-5.070312 0-9.179688-4.109375-9.179688-9.179688 0-5.070312 4.109376-9.179687 9.179688-9.179687 5.066406 0 9.175781 4.109375 9.175781 9.179687zm0 0" fill="#ffcd29"/><path d="m121.804688 101.128906c0 5.070313-4.105469 9.179688-9.175782 9.179688-5.070312 0-9.179687-4.109375-9.179687-9.179688 0-5.070312 4.109375-9.179687 9.179687-9.179687 5.070313 0 9.175782 4.109375 9.175782 9.179687zm0 0" fill="#6dcc6d"/><path d="m108.21875 54.320312c0 5.070313-4.109375 9.179688-9.179688 9.179688-5.066406 0-9.175781-4.109375-9.175781-9.179688 0-5.070312 4.109375-9.175781 9.175781-9.175781 5.070313 0 9.179688 4.105469 9.179688 9.175781zm0 0" fill="#f75c64"/><path d="m141.222656 54.320312c0 5.070313-4.109375 9.179688-9.179687 9.179688-5.066407 0-9.175781-4.109375-9.175781-9.179688 0-5.070312 4.109374-9.175781 9.175781-9.175781 5.070312 0 9.179687 4.105469 9.179687 9.175781zm0 0" fill="#ffcd29"/><path d="m174.226562 54.320312c0 5.070313-4.109374 9.179688-9.179687 9.179688-5.066406 0-9.175781-4.109375-9.175781-9.179688 0-5.070312 4.109375-9.175781 9.175781-9.175781 5.070313 0 9.179687 4.105469 9.179687 9.175781zm0 0" fill="#6dcc6d"/><path d="m498.917969 446.667969c-8.90625-1.707031-15.871094-8.671875-17.578125-17.574219-.050782-.21875-.261719-.351562-.476563-.304688-.152343.035157-.265625.152344-.304687.304688-1.707032 8.902344-8.671875 15.867188-17.574219 17.574219-.214844.050781-.351563.265625-.300781.480469.03125.148437.152344.265624.300781.300781 8.902344 1.707031 15.867187 8.671875 17.574219 17.574219.050781.21875.265625.351562.480468.304687.148438-.035156.265626-.152344.300782-.304687 1.707031-8.902344 8.671875-15.867188 17.578125-17.574219.214843-.050781.347656-.265625.300781-.476563-.035156-.152344-.152344-.269531-.300781-.304687zm0 0" fill="#f75c64"/><path d="m22.875 35.890625h-17.375c-2.761719 0-5-2.238281-5-5 0-2.765625 2.238281-5 5-5h17.375c2.761719 0 5 2.234375 5 5 0 2.761719-2.238281 5-5 5zm0 0" fill="#6dcc6d"/><path d="m14.1875 44.578125c-2.761719 0-5-2.238281-5-5v-17.382813c0-2.761718 2.238281-5 5-5s5 2.238282 5 5v17.382813c.003906 2.761719-2.234375 5-5 5zm0 0" fill="#6dcc6d"/><path d="m343.53125 503.308594h-17.378906c-2.765625 0-5-2.238282-5-5 0-2.765625 2.234375-5 5-5h17.378906c2.761719 0 5 2.234375 5 5 0 2.761718-2.238281 5-5 5zm0 0" fill="#fcd770"/><path d="m334.839844 511.996094c-2.761719 0-5-2.238282-5-5v-17.378906c0-2.761719 2.238281-5 5-5 2.761718 0 5 2.238281 5 5v17.378906c0 2.761718-2.238282 5-5 5zm0 0" fill="#fcd770"/><path d="m79.625 9.996094c-1.328125 0-2.597656-.523438-3.539062-1.460938-.234376-.230468-.441407-.484375-.621094-.757812-.179688-.273438-.335938-.566406-.460938-.871094-.125-.300781-.21875-.613281-.28125-.929688-.066406-.320312-.101562-.648437-.097656-.980468-.003906-.328125.03125-.65625.097656-.980469.0625-.316406.15625-.628906.28125-.929687.125-.304688.28125-.59375.460938-.871094.179687-.273438.386718-.527344.621094-.757813 1.433593-1.4179685 3.578124-1.847656 5.449218-1.085937.300782.128906.585938.285156.859375.460937.273438.179688.53125.386719.761719.621094.226562.230469.4375.488281.617188.757813.179687.277343.335937.566406.460937.871093.125.300781.222656.613281.289063.929688.066406.324219.097656.652343.101562.980469-.003906.332031-.035156.660156-.101562.980468-.066407.316406-.164063.628906-.289063.929688-.125.304687-.28125.597656-.460937.871094-.179688.269531-.390626.527343-.617188.757812-.230469.234375-.488281.445312-.761719.621094-.273437.179687-.558593.332031-.859375.460937-.304687.125-.617187.21875-.941406.28125-.316406.066407-.644531.101563-.96875.101563zm0 0" fill="#fcd770"/><path d="m445.902344 486.171875c-1.328125 0-2.601563-.523437-3.542969-1.460937-.230469-.230469-.4375-.484376-.617187-.757813-.183594-.273437-.335938-.566406-.460938-.871094-.125-.300781-.21875-.609375-.28125-.929687-.066406-.320313-.101562-.648438-.097656-.980469-.003906-.328125.03125-.65625.097656-.980469.0625-.316406.15625-.628906.28125-.929687.125-.304688.277344-.59375.460938-.867188.179687-.277343.386718-.53125.617187-.761719 1.4375-1.417968 3.582031-1.84375 5.449219-1.078124.300781.125.589844.28125.863281.457031.273437.179687.527344.386719.757813.621093.230468.230469.4375.488282.621093.761719.179688.273438.332031.5625.460938.867188.125.300781.222656.613281.289062.929687.0625.324219.09375.652344.101563.980469-.007813.332031-.039063.660156-.101563.980469-.066406.320312-.164062.628906-.289062.929687-.128907.304688-.28125.597657-.460938.871094-.183593.273437-.390625.527344-.621093.757813-.230469.234374-.484376.445312-.757813.621093-.273437.179688-.5625.332031-.863281.460938-.300782.125-.617188.21875-.9375.28125-.320313.066406-.644532.101562-.96875.097656zm0 0" fill="#60bae2"/><g fill="#231f20"><path d="m419.890625 130.480469h-405.703125c-2.761719 0-5-2.238281-5-5v-36.769531c.011719-8.839844 7.175781-16.003907 16.015625-16.015626h383.671875c8.839844.011719 16.003906 7.175782 16.011719 16.015626v36.769531c0 2.757812-2.234375 4.996093-4.996094 5zm-400.703125-10h395.703125v-31.769531c-.003906-3.320313-2.695313-6.011719-6.015625-6.015626h-383.671875c-3.320313.003907-6.011719 2.695313-6.015625 6.015626zm0 0"/><path d="m215.003906 418.648438c-72.25-.078126-130.757812-58.710938-130.679687-130.960938.078125-72.246094 58.707031-130.753906 130.957031-130.675781 72.25.074219 130.757812 58.707031 130.679688 130.957031-.035157 34.644531-13.816407 67.863281-38.316407 92.363281-24.523437 24.628907-57.882812 38.429688-92.640625 38.316407zm0-251.917969c-66.804687.042969-120.925781 54.230469-120.882812 121.035156.042968 66.804687 54.234375 120.925781 121.039062 120.882813 32.03125-.019532 62.75-12.746094 85.414063-35.390626 47.257812-47.214843 47.292969-123.804687.074219-171.0625-22.703126-22.726562-53.519532-35.488281-85.644532-35.464843zm0 0"/><path d="m392.417969 486.105469c-5.574219.015625-10.921875-2.199219-14.855469-6.152344l-61.714844-61.71875c-8.203125-8.203125-8.203125-21.5 0-29.703125 8.199219-8.199219 21.5-8.199219 29.699219 0l61.726563 61.71875c8.203124 8.199219 8.203124 21.496094.003906 29.699219 0 0 0 0-.003906.003906-3.929688 3.953125-9.28125 6.167969-14.855469 6.152344zm-61.722657-93.726563c-6.074218-.003906-11.003906 4.917969-11.007812 10.992188 0 2.921875 1.160156 5.726562 3.230469 7.792968l61.714843 61.71875c4.296876 4.296876 11.261719 4.296876 15.558594.003907 0 0 0 0 .003906-.003907 4.296876-4.292968 4.296876-11.261718.003907-15.554687-.003907-.003906-.003907-.003906-.003907-.003906l-61.722656-61.726563c-2.054687-2.066406-4.855468-3.226562-7.773437-3.21875zm0 0"/><path d="m314.738281 407.507812c-1.324219 0-2.597656-.523437-3.535156-1.464843l-18.496094-18.488281c-1.949219-1.953126-1.949219-5.121094 0-7.074219.097657-.097657.203125-.191407.308594-.28125 2.660156-2.246094 5.199219-4.582031 7.558594-6.9375 2.355469-2.359375 4.707031-4.917969 6.9375-7.558594 1.78125-2.109375 4.9375-2.375 7.046875-.589844.105468.089844.210937.183594.308594.28125l18.492187 18.496094c1.953125 1.949219 1.953125 5.117187 0 7.070313-.871094.871093-2.03125 1.390624-3.265625 1.457031-5.601562.28125-10.082031 4.761719-10.363281 10.363281-.144531 2.65625-2.34375 4.734375-5 4.730469zm-11.199219-23.257812 8.84375 8.84375c1.882813-3.359375 4.65625-6.132812 8.015626-8.015625l-8.84375-8.84375c-1.289063 1.40625-2.59375 2.769531-3.917969 4.09375s-2.6875 2.628906-4.089844 3.921875zm0 0"/><path d="m341.636719 441.953125c-1.328125 0-2.597657-.523437-3.535157-1.460937l-15.402343-15.402344c-1.949219-1.949219-1.949219-5.117188 0-7.070313l22.636719-22.621093c.9375-.941407 2.207031-1.464844 3.535156-1.464844 1.324218 0 2.597656.523437 3.535156 1.464844l15.398438 15.398437c1.953124 1.953125 1.953124 5.117187 0 7.070313l-22.628907 22.628906c-.9375.9375-2.214843 1.460937-3.539062 1.457031zm-8.328125-20.398437 8.328125 8.328124 15.558593-15.558593-8.320312-8.328125zm0 0"/><path d="m461.296875 418.648438h-41.398437c-2.761719 0-5-2.238282-5-5v-324.9375c-.003907-3.324219-2.699219-6.015626-6.023438-6.015626h-342.265625c-2.761719 0-5-2.238281-5-5v-35.796874c.007813-8.839844 7.171875-16.003907 16.011719-16.015626h383.675781c8.839844.011719 16.003906 7.175782 16.015625 16.015626v360.730468c-.011719 8.84375-7.175781 16.007813-16.015625 16.019532zm-36.398437-10h36.398437c3.320313-.003907 6.011719-2.699219 6.015625-6.019532v-360.726562c-.003906-3.320313-2.695312-6.007813-6.015625-6.011719h-383.675781c-3.320313.003906-6.007813 2.691406-6.011719 6.011719v30.800781h337.265625c8.839844.007813 16.003906 7.171875 16.011719 16.011719zm0 0"/><path d="m472.3125 82.695312h-405.703125c-2.761719 0-5-2.238281-5-5v-35.796874c.007813-8.839844 7.171875-16.003907 16.011719-16.015626h383.675781c8.839844.011719 16.003906 7.175782 16.015625 16.015626v35.796874c0 2.761719-2.238281 5-5 5zm-400.703125-10h395.703125v-30.796874c-.003906-3.320313-2.691406-6.011719-6.011719-6.015626h-383.679687c-3.320313.003907-6.007813 2.695313-6.011719 6.015626zm0 0"/><path d="m408.875 465.453125h-1.152344c-2.203125 0-4.144531-1.441406-4.785156-3.546875-.519531-1.734375-1.464844-3.308594-2.746094-4.585938l-61.71875-61.722656c-4.292968-4.296875-11.261718-4.296875-15.558594 0-4.296874 4.296875-4.296874 11.261719 0 15.558594l45.761719 45.761719c1.949219 1.953125 1.953125 5.117187 0 7.074219-.9375.9375-2.210937 1.464843-3.539062 1.460937h-339.933594c-8.839844-.011719-16.003906-7.175781-16.015625-16.015625v-360.726562c.011719-8.839844 7.175781-16.003907 16.015625-16.015626h383.671875c8.839844.011719 16.003906 7.175782 16.011719 16.015626v360.726562c-.007813 8.839844-7.171875 16.003906-16.011719 16.015625zm-383.671875-382.757813c-3.320313.003907-6.011719 2.695313-6.015625 6.015626v360.726562c.003906 3.320312 2.695312 6.011719 6.015625 6.015625h327.871094l-37.21875-37.21875c-8.203125-8.203125-8.203125-21.5 0-29.703125 8.199219-8.199219 21.5-8.199219 29.699219 0l61.71875 61.71875c1.433593 1.4375 2.65625 3.074219 3.621093 4.859375 2.398438-.855469 3.996094-3.125 4-5.671875v-360.726562c-.003906-3.320313-2.699219-6.015626-6.019531-6.015626zm0 0"/><path d="m276.3125 346.816406h-122.621094c-7.257812-.007812-13.140625-5.886718-13.148437-13.144531v-84.089844c.007812-7.257812 5.890625-13.140625 13.148437-13.148437h123.398438c6.832031.011718 12.367187 5.546875 12.378906 12.378906v84.855469c-.007812 7.261719-5.894531 13.144531-13.15625 13.148437zm-122.621094-100.382812c-1.726562.027344-3.121094 1.421875-3.148437 3.148437v84.085938c.027343 1.726562 1.421875 3.117187 3.148437 3.148437h122.621094c1.726562-.03125 3.121094-1.421875 3.148438-3.148437v-84.855469c-.015626-1.304688-1.070313-2.359375-2.375-2.378906zm0 0"/><path d="m267.953125 292.609375h-105.902344c-11.871093-.011719-21.492187-9.632813-21.507812-21.507813v-21.519531c.007812-7.257812 5.890625-13.140625 13.148437-13.148437h123.402344c6.832031.011718 12.363281 5.546875 12.375 12.378906v22.289062c-.011719 11.878907-9.636719 21.5-21.515625 21.507813zm-114.261719-46.175781c-1.726562.027344-3.121094 1.421875-3.148437 3.148437v21.519531c.007812 6.351563 5.15625 11.5 11.507812 11.507813h105.902344c6.351563-.007813 11.5-5.15625 11.507813-11.507813v-22.289062c-.015626-1.304688-1.070313-2.359375-2.375-2.378906zm0 0"/><path d="m254.03125 246.433594c-2.761719 0-5-2.238282-5-5v-9.75c0-4.96875-4.03125-9-9-9h-50.066406c-4.96875 0-9 4.03125-9 9v9.75c0 2.761718-2.238282 5-5 5-2.761719 0-5-2.238282-5-5v-9.75c.007812-10.488282 8.511718-18.992188 19-19h50.074218c10.492188.007812 18.996094 8.511718 19 19v9.75c0 2.761718-2.238281 5-5 5-.003906 0-.003906 0-.007812 0zm0 0"/><path d="m226.445312 312.179688h-22.886718c-8.164063.003906-14.789063-6.609376-14.792969-14.773438-.007813-8.164062 6.605469-14.789062 14.773437-14.796875h.019532 22.890625c8.164062-.003906 14.789062 6.609375 14.792969 14.777344.007812 8.160156-6.609376 14.785156-14.773438 14.792969-.007812 0-.015625 0-.023438 0zm-22.886718-19.570313c-2.640625-.003906-4.785156 2.136719-4.789063 4.78125-.003906 2.640625 2.136719 4.785156 4.777344 4.789063h.011719 22.886718c2.644532.003906 4.785157-2.136719 4.792969-4.777344.003907-2.644532-2.136719-4.789063-4.78125-4.792969-.003906 0-.007812 0-.011719 0zm0 0"/><path d="m215.003906 326.371094c-8.164062-.007813-14.777344-6.621094-14.785156-14.78125v-4.410156c0-2.761719 2.238281-5 5-5h19.566406c2.761719 0 5 2.238281 5 5v4.417968c-.011718 8.15625-6.625 14.765625-14.78125 14.773438zm-4.75-14.199219c.324219 2.621094 2.710938 4.488281 5.335938 4.164063 2.175781-.269532 3.890625-1.984376 4.160156-4.164063zm0 0"/><path d="m46.621094 115.308594c-7.832032 0-14.179688-6.347656-14.179688-14.179688 0-7.828125 6.347656-14.175781 14.179688-14.175781 7.828125 0 14.175781 6.34375 14.175781 14.175781-.011719 7.824219-6.351563 14.167969-14.175781 14.179688zm0-18.359375c-2.308594 0-4.179688 1.871093-4.179688 4.179687s1.871094 4.179688 4.179688 4.179688 4.175781-1.871094 4.175781-4.179688c-.003906-2.304687-1.871094-4.175781-4.175781-4.179687zm0 0"/><path d="m79.621094 115.308594c-7.828125 0-14.175782-6.347656-14.175782-14.179688 0-7.828125 6.347657-14.175781 14.175782-14.175781 7.832031 0 14.175781 6.34375 14.179687 14.175781-.011719 7.824219-6.351562 14.167969-14.179687 14.179688zm0-18.359375c-2.308594 0-4.175782 1.871093-4.175782 4.179687s1.867188 4.179688 4.175782 4.179688 4.179687-1.871094 4.179687-4.179688c-.003906-2.304687-1.871093-4.175781-4.179687-4.179687zm0 0"/><path d="m112.625 115.308594c-7.828125 0-14.175781-6.347656-14.175781-14.179688 0-7.828125 6.347656-14.175781 14.175781-14.175781 7.832031 0 14.175781 6.34375 14.179688 14.175781-.011719 7.824219-6.351563 14.167969-14.179688 14.179688zm0-18.359375c-2.304688 0-4.175781 1.871093-4.175781 4.179687s1.871093 4.179688 4.175781 4.179688c2.308594 0 4.179688-1.871094 4.179688-4.179688-.003907-2.304687-1.871094-4.175781-4.179688-4.179687zm0 0"/><path d="m99.039062 68.5c-7.828124 0-14.175781-6.347656-14.175781-14.179688 0-7.828124 6.347657-14.175781 14.175781-14.175781 7.832032 0 14.175782 6.34375 14.179688 14.175781-.011719 7.824219-6.351562 14.167969-14.179688 14.179688zm0-18.359375c-2.308593 0-4.175781 1.871094-4.175781 4.179687 0 2.304688 1.867188 4.175782 4.175781 4.175782 2.308594 0 4.179688-1.871094 4.179688-4.175782-.003906-2.308593-1.871094-4.171874-4.179688-4.175781zm0 0"/><path d="m132.042969 68.5c-7.828125 0-14.175781-6.347656-14.175781-14.179688 0-7.828124 6.347656-14.175781 14.175781-14.175781 7.832031 0 14.175781 6.34375 14.179687 14.175781-.011718 7.824219-6.351562 14.167969-14.179687 14.179688zm0-18.359375c-2.304688 0-4.175781 1.871094-4.175781 4.179687 0 2.304688 1.871093 4.175782 4.175781 4.175782 2.308593 0 4.179687-1.871094 4.179687-4.175782-.003906-2.308593-1.871094-4.171874-4.179687-4.175781zm0 0"/><path d="m165.046875 68.5c-7.828125 0-14.175781-6.347656-14.175781-14.179688 0-7.828124 6.347656-14.175781 14.175781-14.175781 7.832031 0 14.175781 6.34375 14.179687 14.175781-.011718 7.824219-6.351562 14.167969-14.179687 14.179688zm0-18.359375c-2.304687 0-4.175781 1.871094-4.175781 4.179687 0 2.304688 1.871094 4.175782 4.175781 4.175782 2.308594 0 4.179687-1.871094 4.179687-4.175782-.003906-2.308593-1.871093-4.171874-4.179687-4.175781zm0 0"/><path d="m215.003906 397.320312c-60.546875.039063-109.664062-49.011718-109.703125-109.558593-.019531-29.117188 11.546875-57.050781 32.144531-77.628907 42.808594-42.859374 112.25-42.902343 155.109376-.097656 42.863281 42.804688 42.90625 112.25.101562 155.109375-20.585938 20.613281-48.523438 32.1875-77.652344 32.175781zm-70.488281-180.125c-38.890625 38.929688-38.855469 102.011719.070313 140.902344 38.929687 38.886719 102.011718 38.855469 140.902343-.070312 38.859375-38.902344 38.859375-101.933594 0-140.832032-38.957031-38.859374-102.019531-38.859374-140.972656 0zm0 0"/></g></svg>