<svg id="Capa_1" enable-background="new 0 0 512 512" height="512" viewBox="0 0 512 512" width="512" xmlns="http://www.w3.org/2000/svg"><g><path d="m482.583 199.414h-12.419c-5.078-19.254-12.705-37.643-22.751-54.848l8.779-8.796c5.551-5.53 8.611-12.904 8.618-20.766.008-7.875-3.048-15.272-8.604-20.829l-38.408-38.409c-5.536-5.535-12.919-8.583-20.791-8.583s-15.256 3.048-20.791 8.583l-8.793 8.793c-17.269-10.066-35.661-17.687-54.864-22.732v-12.438c0-16.205-13.184-29.389-29.389-29.389h-54.34c-16.221 0-29.417 13.184-29.417 29.389v12.439c-19.221 5.053-37.61 12.675-54.846 22.732l-8.812-8.794c-11.443-11.443-30.092-11.448-41.582 0l-38.42 38.422c-11.436 11.478-11.43 30.125.013 41.568l8.816 8.816c-10.073 17.246-17.7 35.632-22.753 54.842h-12.44c-16.205 0-29.389 13.196-29.389 29.417v54.339c0 16.205 13.184 29.389 29.389 29.389h12.438c5.05 19.219 12.678 37.613 22.751 54.863l-8.813 8.794c-5.535 5.536-8.584 12.919-8.584 20.791 0 7.871 3.049 15.255 8.584 20.79l38.408 38.409c5.55 5.55 12.936 8.605 20.801 8.605h.028c7.861-.007 15.236-3.068 20.746-8.598l8.816-8.8c17.207 10.046 35.596 17.674 54.848 22.751v12.419c0 16.221 13.196 29.417 29.417 29.417h54.34c16.205 0 29.389-13.196 29.389-29.417v-12.417c19.262-5.075 37.657-12.702 54.869-22.749l8.775 8.775c5.536 5.558 12.925 8.619 20.804 8.619s15.268-3.061 20.791-8.605l38.395-38.396c5.558-5.537 8.618-12.925 8.618-20.804s-3.061-15.267-8.604-20.791l-8.789-8.788c10.047-17.21 17.674-35.606 22.749-54.87h12.417c16.221 0 29.417-13.184 29.417-29.389v-54.339c0-16.219-13.196-29.415-29.417-29.415zm9.417 83.755c0 5.177-4.225 9.389-9.417 9.389h-20.268c-4.677 0-8.729 3.241-9.756 7.804-5.061 22.481-13.881 43.755-26.216 63.232-2.503 3.953-1.932 9.113 1.377 12.421l14.356 14.356c1.763 1.756 2.733 4.113 2.733 6.635s-.971 4.878-2.747 6.648l-38.421 38.422c-1.757 1.763-4.113 2.734-6.636 2.734s-4.879-.971-6.648-2.747l-14.343-14.343c-3.31-3.308-8.472-3.88-12.421-1.377-19.48 12.335-40.755 21.156-63.232 26.216-4.563 1.027-7.804 5.079-7.804 9.756v20.267c0 5.192-4.212 9.417-9.389 9.417h-54.34c-5.192 0-9.417-4.225-9.417-9.417v-20.267c0-4.676-3.24-8.727-7.801-9.755-22.466-5.063-43.731-13.884-63.207-26.217-1.646-1.043-3.502-1.552-5.347-1.552-2.58 0-5.138.996-7.067 2.922l-14.391 14.363c-1.755 1.761-4.104 2.731-6.616 2.734-.003 0-.006 0-.009 0-2.522 0-4.888-.976-6.659-2.747l-38.408-38.409c-3.604-3.604-3.604-9.693-.007-13.29l14.371-14.343c3.313-3.308 3.89-8.473 1.384-12.428-12.376-19.542-21.195-40.813-26.213-63.221-1.023-4.568-5.078-7.815-9.759-7.815h-20.293c-5.177 0-9.389-4.212-9.389-9.389v-54.339c0-5.192 4.212-9.417 9.389-9.417h20.296c4.68 0 8.734-3.246 9.758-7.813 5.021-22.396 13.841-43.658 26.214-63.195 2.503-3.953 1.932-9.113-1.377-12.421l-14.371-14.371c-3.659-3.659-3.653-9.63 0-13.297l38.395-38.395c3.681-3.667 9.652-3.672 13.317-.006l14.371 14.343c3.309 3.301 8.462 3.871 12.411 1.372 19.521-12.352 40.784-21.163 63.198-26.188 4.566-1.024 7.813-5.078 7.813-9.758v-20.294c0-5.177 4.225-9.389 9.417-9.389h54.34c5.177 0 9.389 4.212 9.389 9.389v20.295c0 4.681 3.247 8.735 7.814 9.758 22.385 5.013 43.658 13.825 63.229 26.191 3.951 2.496 9.105 1.923 12.413-1.383l14.343-14.342c3.603-3.604 9.692-3.604 13.297 0l38.408 38.409c1.774 1.774 2.75 4.142 2.747 6.668-.002 2.512-.973 4.861-2.754 6.636l-14.343 14.371c-3.303 3.309-3.871 8.464-1.37 12.414 12.332 19.473 21.152 40.738 26.217 63.207 1.027 4.561 5.079 7.801 9.755 7.801h20.268c5.192 0 9.417 4.225 9.417 9.417v54.338z"/><path d="m396.907 165.019c-4.809 2.716-6.505 8.816-3.789 13.625 34.602 61.259 23.979 138.832-25.831 188.643-61.358 61.359-161.219 61.358-222.603 0-61.358-61.359-61.357-161.219-.002-222.602 49.858-49.833 127.464-60.435 188.725-25.78 4.805 2.72 10.907 1.028 13.628-3.78 2.719-4.807 1.026-10.908-3.78-13.627-33.091-18.718-72.193-26.332-110.103-21.438-39.143 5.054-74.623 22.51-102.611 50.484-69.154 69.184-69.153 181.73.003 250.887 34.592 34.577 80.023 51.865 125.452 51.865s90.855-17.289 125.434-51.867c27.968-27.968 45.427-63.431 50.488-102.554 4.901-37.885-2.693-76.974-21.386-110.067-2.717-4.808-8.818-6.504-13.625-3.789z"/><path d="m374.395 147.672c1.503 0 3.029-.34 4.464-1.058 4.94-2.47 6.942-8.477 4.473-13.417l-.028-.057c-2.471-4.94-8.465-6.914-13.402-4.444-4.939 2.47-6.928 8.505-4.458 13.445 1.75 3.505 5.282 5.531 8.951 5.531z"/><path d="m299.213 153.181c-17.625 0-33.488 8.59-43.226 22.114-9.734-13.523-25.587-22.114-43.2-22.114-29.35 0-53.228 23.878-53.228 53.228 0 11.665 3.785 22.457 10.179 31.235-20.387 14.075-32.999 37.425-32.999 62.59v13.039c0 5.523 4.478 10 10 10h34.281c-.687 4.086-1.054 8.255-1.054 12.479v13.039c0 5.523 4.478 10 10 10h132.064c5.522 0 10-4.477 10-10v-13.039c0-4.223-.367-8.393-1.054-12.479h34.254c5.522 0 10-4.477 10-10v-13.039c0-25.174-12.608-48.523-32.993-62.59 6.39-8.778 10.174-19.57 10.174-31.235.001-29.35-23.864-53.228-53.198-53.228zm0 20c18.306 0 33.199 14.906 33.199 33.228 0 14.878-9.837 27.501-23.349 31.707-1.613-22.821-17.682-41.706-39.094-47.541 5.667-10.482 16.745-17.394 29.244-17.394zm-76.426 68.717c0-18.306 14.893-33.199 33.198-33.199 18.321 0 33.228 14.893 33.228 33.199 0 18.322-14.906 33.228-33.228 33.228-18.305-.001-33.198-14.906-33.198-33.228zm-10-68.717c12.486 0 23.553 6.912 29.217 17.395-21.399 5.837-37.456 24.721-39.067 47.542-13.527-4.204-23.377-16.829-23.377-31.71 0-18.321 14.906-33.227 33.227-33.227zm-56.047 130.092v-3.039c0-20.053 10.895-38.548 28.164-48.534 6.195 3.824 13.229 6.405 20.756 7.417 1.737 5.067 4.212 9.79 7.306 14.04-11.126 7.677-19.928 18.121-25.636 30.116zm155.292 35.518h-112.064v-3.039c0-20.063 10.893-38.557 28.157-48.533 8.109 5.009 17.651 7.907 27.861 7.907 10.216 0 19.766-2.899 27.88-7.91 17.271 9.984 28.167 28.481 28.167 48.536v3.039zm43.199-38.557v3.039h-30.566c-5.709-11.992-14.512-22.436-25.638-30.115 3.095-4.25 5.573-8.974 7.31-14.041 7.521-1.012 14.549-3.592 20.739-7.414 17.264 9.976 28.155 28.47 28.155 48.531z"/></g></svg>