<svg id="Layer_1" enable-background="new 0 0 512 512" height="512" viewBox="0 0 512 512" width="512" xmlns="http://www.w3.org/2000/svg"><path d="m492 512c-11.046 0-20-8.954-20-20 0-39.701-32.086-72-71.525-72h-16.949c-39.44 0-71.526 32.299-71.526 72 0 11.046-8.954 20-20 20s-20-8.954-20-20c0-61.757 50.03-112 111.525-112h16.949c61.496 0 111.526 50.243 111.526 112 0 11.046-8.954 20-20 20zm-16-247c0-46.869-38.131-85-85-85s-85 38.131-85 85 38.131 85 85 85 85-38.131 85-85zm-40 0c0 24.813-20.187 45-45 45s-45-20.187-45-45 20.187-45 45-45 45 20.187 45 45zm-204 227c0-11.046-8.954-20-20-20h-92.021c-44.1 0-79.979-35.879-79.979-79.979v-272.042c0-44.1 35.879-79.979 79.979-79.979h184.062c44.101 0 79.979 35.879 79.979 79.979 0 11.046 8.954 20 20 20s20-8.954 20-20c.001-66.156-53.822-119.979-119.999-119.979h-184.042c-66.156 0-119.979 53.823-119.979 119.979v272.041c0 66.157 53.823 119.98 119.979 119.98h92.021c11.046 0 20-8.954 20-20zm33-265c0-11.046-8.954-20-20-20h-108c-11.046 0-20 8.954-20 20s8.954 20 20 20h108c11.046 0 20-8.954 20-20zm40-77c0-11.046-8.954-20-20-20h-148c-11.046 0-20 8.954-20 20s8.954 20 20 20h148c11.046 0 20-8.954 20-20zm-40 230c0-11.046-8.954-20-20-20h-108c-11.046 0-20 8.954-20 20s8.954 20 20 20h108c11.046 0 20-8.954 20-20zm0-77c0-11.046-8.954-20-20-20h-108c-11.046 0-20 8.954-20 20s8.954 20 20 20h108c11.046 0 20-8.954 20-20z"/></svg>